<?xml version="1.0" standalone="no"?>
<!DOCTYPE svg PUBLIC "-//W3C//DTD SVG 20010904//EN"
 "http://www.w3.org/TR/2001/REC-SVG-20010904/DTD/svg10.dtd">
<svg version="1.0" xmlns="http://www.w3.org/2000/svg"
 width="1280.000000pt" height="919.000000pt" viewBox="0 0 1280.000000 919.000000"
 preserveAspectRatio="xMidYMid meet">
<metadata>
Created by potrace 1.16, written by Peter Selinger 2001-2019
</metadata>
<g transform="translate(0.000000,919.000000) scale(0.100000,-0.100000)"
fill="#000000" stroke="none">
<path d="M0 4595 l0 -4595 6400 0 6400 0 0 4595 0 4595 -6400 0 -6400 0 0
-4595z m3822 4180 c340 -71 739 -301 1198 -693 168 -143 514 -489 691 -692
230 -263 432 -471 979 -1010 623 -614 985 -989 1088 -1125 404 -538 426 -1066
64 -1551 -235 -315 -556 -530 -927 -620 -116 -28 -187 -30 -270 -9 -84 22
-303 132 -437 221 l-113 76 110 -112 c224 -227 348 -311 910 -614 178 -96 302
-169 321 -190 50 -52 76 -135 77 -241 1 -79 -2 -96 -25 -141 -57 -108 -182
-185 -303 -187 -52 -1 -71 5 -145 44 -196 101 -396 253 -579 439 -338 342
-662 881 -795 1318 l-25 83 22 9 c142 55 315 129 367 156 171 89 297 245 357
440 28 91 26 305 -5 401 l-22 71 -208 -85 c-721 -294 -802 -325 -837 -319 -46
9 -91 48 -106 93 -15 46 0 99 38 135 18 16 205 97 513 223 267 108 487 199
489 201 6 6 -109 293 -120 299 -4 3 -212 -77 -461 -178 -571 -232 -539 -221
-583 -213 -101 19 -141 147 -70 219 29 28 72 47 630 274 209 85 381 156 382
157 2 1 -118 299 -122 304 -2 2 -77 -27 -167 -63 -551 -226 -833 -335 -861
-335 -92 0 -155 106 -113 188 23 45 44 57 216 127 771 316 815 335 814 349 -4
41 -83 157 -158 231 -142 141 -303 206 -511 206 -138 0 -169 -8 -450 -122
-272 -111 -328 -142 -425 -239 -86 -87 -139 -171 -177 -285 -24 -71 -27 -95
-28 -220 0 -118 3 -150 22 -205 44 -132 604 -1496 635 -1549 43 -71 169 -197
242 -240 32 -19 94 -48 139 -64 71 -26 99 -31 212 -34 94 -3 145 0 185 11 30
8 56 13 58 11 2 -1 14 -45 27 -96 27 -105 72 -239 136 -404 39 -102 43 -119
47 -227 4 -100 1 -127 -18 -190 -81 -267 -297 -538 -566 -710 -77 -49 -206
-109 -309 -144 -580 -194 -1112 2 -1473 542 -189 282 -324 674 -363 1052 -15
150 -6 769 15 947 65 565 160 922 445 1677 207 550 273 754 325 1013 47 233
57 333 63 585 8 349 -23 587 -115 893 -45 146 -50 137 70 112z"/>
</g>
</svg>
